<svg xmlns="http://www.w3.org/2000/svg" viewBox="0 0 41.5 41.5"><defs><style>.cls-1{fill:#aaa;}.cls-2{fill:none;stroke:#ccc;stroke-miterlimit:10;stroke-width:1.5px;}</style></defs><title>资源 11</title><g id="图层_2" data-name="图层 2"><g id="图层_1-2" data-name="图层 1"><path class="cls-1" d="M12.77,19.68h-4a2.07,2.07,0,0,0-2,2.14V32.57a2.07,2.07,0,0,0,2,2.15h4a2.07,2.07,0,0,0,2-2.15V21.82A2.07,2.07,0,0,0,12.77,19.68Zm0,12.89h-4V21.82h4Zm20-17.19h-4a2.07,2.07,0,0,0-2,2.15v15a2.07,2.07,0,0,0,2,2.15h4a2.07,2.07,0,0,0,2-2.15v-15A2.07,2.07,0,0,0,32.73,15.38Zm0,17.19h-4v-15h4Zm-10-25.79h-4a2.07,2.07,0,0,0-2,2.15V32.57a2.07,2.07,0,0,0,2,2.15h4a2.07,2.07,0,0,0,2-2.15V8.93A2.07,2.07,0,0,0,22.75,6.78Zm0,25.79h-4V8.93h4Z"/><rect class="cls-2" x="0.75" y="0.75" width="40" height="40" rx="1" ry="1"/></g></g></svg>