<svg xmlns="http://www.w3.org/2000/svg" viewBox="0 0 27.95 27.95"><defs><style>.cls-1{fill:#aaa;}</style></defs><title>资源 45barchart</title><g id="图层_2" data-name="图层 2"><g id="图层_1-2" data-name="图层 1"><path  d="M6,12.9H2a2.07,2.07,0,0,0-2,2.15V25.8A2.07,2.07,0,0,0,2,28H6A2.07,2.07,0,0,0,8,25.8V15.05A2.07,2.07,0,0,0,6,12.9ZM6,25.8H2V15.05H6ZM26,8.6H22a2.07,2.07,0,0,0-2,2.15V25.8A2.07,2.07,0,0,0,22,28h4a2.08,2.08,0,0,0,2-2.15v-15A2.08,2.08,0,0,0,26,8.6Zm0,17.2H22v-15h4ZM16,0H12a2.07,2.07,0,0,0-2,2.15V25.8A2.07,2.07,0,0,0,12,28h4a2.08,2.08,0,0,0,2-2.15V2.15A2.08,2.08,0,0,0,16,0Zm0,25.8H12V2.15h4Z"/></g></g></svg>