<svg xmlns="http://www.w3.org/2000/svg" viewBox="0 0 72.81 74"><defs><style>.cls-1{fill:#aaa;}</style></defs><title>资源 38four_dimension</title><g id="图层_2" data-name="图层 2"><g id="图层_1-2" data-name="图层 1"><path  d="M55.81,63.61H9.42V17.39H55.81Zm-45.39-1H54.81V18.39H10.42Z"/><rect  y="32.04" width="3" height="1"/><path  d="M57.55,33H52.09V32h5.46ZM46.64,33H41.18V32h5.46ZM35.73,33H30.27V32h5.46ZM24.82,33H19.36V32h5.46ZM13.91,33H8.45V32h5.46Z"/><rect  x="63" y="32.04" width="3" height="1"/><rect  y="47.96" width="3" height="1"/><path  d="M57.55,49H52.09V48h5.46ZM46.64,49H41.18V48h5.46ZM35.73,49H30.27V48h5.46ZM24.82,49H19.36V48h5.46ZM13.91,49H8.45V48h5.46Z"/><rect  x="63" y="47.96" width="3" height="1"/><rect  x="23.91" y="7" width="1" height="3"/><path  d="M24.91,65.46h-1V59.91h1Zm0-11.1h-1V48.82h1Zm0-11.09h-1V37.73h1Zm0-11.09h-1V26.64h1Zm0-11.09h-1V15.55h1Z"/><rect  x="23.91" y="71" width="1" height="3"/><rect  x="39.66" y="7" width="1" height="3"/><path  d="M40.66,65.46h-1V59.91h1Zm0-11.1h-1V48.82h1Zm0-11.09h-1V37.73h1Zm0-11.09h-1V26.64h1Zm0-11.09h-1V15.55h1Z"/><rect  x="39.66" y="71" width="1" height="3"/><path  d="M70.3,15.52h-13v-13h13Zm-12.25-.75h11.5V3.31H58.05Z"/><rect  x="55" y="6.52" width="1" height="0.75"/><path  d="M69.55,7.27H67.29V6.52h2.26ZM65,7.27H62.78V6.52H65Zm-4.52,0H58.26V6.52h2.26Z"/><rect  x="71.81" y="6.52" width="1" height="0.75"/><rect  x="55" y="10.81" width="1" height="0.75"/><path  d="M69.55,11.56H67.29v-.75h2.26Zm-4.51,0H62.78v-.75H65Zm-4.52,0H58.26v-.75h2.26Z"/><rect  x="71.81" y="10.81" width="1" height="0.75"/><rect  x="61.21" width="0.75" height="1"/><path  d="M62,15.3h-.75V13.51H62Zm0-3.58h-.75V9.93H62Zm0-3.57h-.75V6.36H62Zm0-3.58h-.75V2.79H62Z"/><rect  x="61.21" y="17.08" width="0.75" height="1"/><rect  x="65.46" width="0.75" height="1"/><path  d="M66.21,15.3h-.75V13.51h.75Zm0-3.58h-.75V9.93h.75Zm0-3.57h-.75V6.36h.75Zm0-3.58h-.75V2.79h.75Z"/><rect  x="65.46" y="17.08" width="0.75" height="1"/><rect  x="42.99" y="19.03" width="14.49" height="0.75" transform="matrix(0.54, -0.84, 0.84, 0.54, 6.72, 51.13)"/><polygon  points="55.17 14.49 55.31 11.5 52.65 12.87 55.17 14.49"/></g></g></svg>