<svg xmlns="http://www.w3.org/2000/svg" viewBox="0 0 41.5 41.5"><defs><style>.cls-1{fill:#1890ff;}.cls-2{fill:none;stroke:#1890ff;stroke-miterlimit:10;stroke-width:1.5px;}</style></defs><title>资源 10</title><g id="图层_2" data-name="图层 2"><g id="图层_1-2" data-name="图层 1"><path class="cls-1" d="M28.76,35.65c-3.94-2-10.41-.69-14.34-1.22s-6.49-4.16-7.83-7.91c-3.42-9.6,2.32-12.2,7-12S16.3,10,22.85,6.37s8.31,5.63,7.59,7.72-1.23,4.09,3.71,9.33S32.7,37.69,28.76,35.65ZM32,23.55c-4.32-4.38-4.39-6.24-3.65-8.21.64-1.71.28-9.4-5.31-6.43s-3.91,7.77-7.88,7.64-9.39,2.07-6.58,9.82a8.64,8.64,0,0,0,7,5.83c3.34.38,8.78-.56,12.1,1S36.16,27.75,32,23.55Zm-7.16,5.53c-2.05-.77-2.51-3.36-1.9-5.5s-1.25-5.09-2.12-6.75,1.16-5.41,3.31-6c3.48-.94,1.73,4.55,1.87,8.21s5.38,6.05,5.32,8.29S26.9,29.85,24.85,29.08Zm-5.29-2.95a6.41,6.41,0,0,1-6.41,1.7c-2.32-.78-3.86-4.58-2.06-6.19,3.67-3.28,4.05.16,7-1.3S21.36,24.49,19.56,26.13Z"/><rect class="cls-2" x="0.75" y="0.75" width="40" height="40" rx="1" ry="1"/></g></g></svg>