<svg xmlns="http://www.w3.org/2000/svg" viewBox="0 0 30.39 30.4"><defs></defs><title>资源 44heatmap</title><g id="图层_2" data-name="图层 2"><g id="图层_1-2" data-name="图层 1"><path d="M23.21,30.1c-3.94-2-10.41-.69-14.35-1.22S2.38,24.72,1,21c-3.43-9.6,2.32-12.2,7-12S10.75,4.4,17.3.82s8.31,5.63,7.58,7.72-1.23,4.09,3.71,9.33S27.15,32.14,23.21,30.1ZM26.46,18c-4.33-4.38-4.39-6.24-3.65-8.21.64-1.71.28-9.4-5.31-6.43S13.59,11.12,9.62,11,.22,13.07,3,20.82a8.68,8.68,0,0,0,7,5.83c3.34.38,8.78-.57,12.1,1S30.6,22.2,26.46,18ZM19.3,23.53c-2.05-.77-2.51-3.36-1.9-5.5s-1.26-5.09-2.12-6.75,1.15-5.41,3.3-6c3.49-.93,1.73,4.56,1.88,8.22s5.37,6,5.32,8.29S21.34,24.3,19.3,23.53Zm-5.29-3A6.42,6.42,0,0,1,7.6,22.28c-2.32-.78-3.86-4.58-2.07-6.19,3.67-3.28,4.06.15,7.05-1.3S15.81,18.94,14,20.57Z"/></g></g></svg>