<svg xmlns="http://www.w3.org/2000/svg" viewBox="0 0 30.12 27.76"><defs><style>.cls-1{fill:#aaa;}</style></defs><title>资源 46linechart</title><g id="图层_2" data-name="图层 2"><g id="图层_1-2" data-name="图层 1"><path  d="M29,25.55H2.26V1.13A1.13,1.13,0,0,0,0,1.13V26.64a1.15,1.15,0,0,0,1.13,1.12H29a1.15,1.15,0,0,0,1.13-1.12A1.09,1.09,0,0,0,29,25.55Z"/><path  d="M5.84,18.21l6.73-6.7L18.08,17a1.21,1.21,0,0,0,.83.33,1.15,1.15,0,0,0,.8-.33l9.61-9.65a1.05,1.05,0,0,0-1.49-1.48L19,14.74,13.4,9.19a1.59,1.59,0,0,0-.82-.26,1.18,1.18,0,0,0-.81.33L4.25,16.69a1.09,1.09,0,0,0,0,1.55h0A1.14,1.14,0,0,0,5.84,18.21Z"/></g></g></svg>