<svg xmlns="http://www.w3.org/2000/svg" viewBox="0 0 41.5 41.5"><defs><style>.cls-1{fill:#aaa;}.cls-2{fill:none;stroke:#ccc;stroke-miterlimit:10;stroke-width:1.5px;}</style></defs><title>资源 12</title><g id="图层_2" data-name="图层 2"><g id="图层_1-2" data-name="图层 1"><path class="cls-1" d="M34.68,32.42H8V8A1.13,1.13,0,0,0,5.69,8V33.51a1.14,1.14,0,0,0,1.13,1.12H34.68a1.14,1.14,0,0,0,1.13-1.12,1.09,1.09,0,0,0-1.09-1.09Z"/><path class="cls-1" d="M11.53,25.08l6.73-6.7,5.51,5.48a1.21,1.21,0,0,0,.83.33,1.15,1.15,0,0,0,.8-.33L35,14.21A1.07,1.07,0,0,0,35,12.72a1.05,1.05,0,0,0-1.45,0l-8.85,8.88L19.1,16.06a1.65,1.65,0,0,0-.83-.26,1.14,1.14,0,0,0-.8.33L9.94,23.56a1.09,1.09,0,0,0,0,1.55h0A1.14,1.14,0,0,0,11.53,25.08Z"/><rect class="cls-2" x="0.75" y="0.75" width="40" height="40" rx="1" ry="1"/></g></g></svg>