<?xml version="1.0" standalone="no"?><!DOCTYPE svg PUBLIC "-//W3C//DTD SVG 1.1//EN" "http://www.w3.org/Graphics/SVG/1.1/DTD/svg11.dtd"><svg t="1565078778567" class="icon" viewBox="0 0 1024 1024" version="1.1" xmlns="http://www.w3.org/2000/svg" p-id="15495" xmlns:xlink="http://www.w3.org/1999/xlink" width="200" height="200"><defs><style type="text/css"></style></defs><path d="M512 0a512 512 0 1 0 512 512 512 512 0 0 0-512-512z m12.16 768a198.4 198.4 0 0 1-172.16-80.64l37.12-42.24a158.72 158.72 0 0 0 135.04 64A106.88 106.88 0 0 0 640 604.16a104.32 104.32 0 0 0-115.2-108.16 154.24 154.24 0 0 0-112.64 46.72l-44.8-16V256h298.88v55.68H428.16v175.36a164.48 164.48 0 0 1 114.56-45.44 151.68 151.68 0 0 1 156.16 160.64A163.2 163.2 0 0 1 524.16 768z" fill="#f4ea2a" p-id="15496"></path></svg>