<?xml version="1.0" standalone="no"?><!DOCTYPE svg PUBLIC "-//W3C//DTD SVG 1.1//EN" "http://www.w3.org/Graphics/SVG/1.1/DTD/svg11.dtd"><svg t="1565078803784" class="icon" viewBox="0 0 1024 1024" version="1.1" xmlns="http://www.w3.org/2000/svg" p-id="16109" xmlns:xlink="http://www.w3.org/1999/xlink" width="200" height="200"><defs><style type="text/css"></style></defs><path d="M512 0a512 512 0 1 0 512 512 512 512 0 0 0-512-512z m-3.84 768a163.2 163.2 0 0 1-128-59.52l29.44-46.08a120.32 120.32 0 0 0 101.12 50.56c95.36 0 133.12-100.48 133.12-192a183.04 183.04 0 0 0 0-19.2A168.32 168.32 0 0 1 506.88 576 146.56 146.56 0 0 1 352 417.92 159.36 159.36 0 0 1 517.76 256c131.84 0 183.04 120.96 183.04 256s-60.8 256-192.64 256z" fill="#f4ea2a" p-id="16110"></path><path d="M519.68 311.04A104.96 104.96 0 0 0 411.52 416a99.84 99.84 0 0 0 108.8 106.88A143.36 143.36 0 0 0 640 448c-7.04-60.16-37.76-136.96-120.32-136.96z" fill="#f4ea2a" p-id="16111"></path></svg>