<?xml version="1.0" standalone="no"?><!DOCTYPE svg PUBLIC "-//W3C//DTD SVG 1.1//EN" "http://www.w3.org/Graphics/SVG/1.1/DTD/svg11.dtd"><svg t="1565078800194" class="icon" viewBox="0 0 1024 1024" version="1.1" xmlns="http://www.w3.org/2000/svg" p-id="15955" xmlns:xlink="http://www.w3.org/1999/xlink" width="200" height="200"><defs><style type="text/css"></style></defs><path d="M512 0a512 512 0 1 0 512 512 512 512 0 0 0-512-512z m13.44 768c-96 0-173.44-49.92-173.44-134.4a145.92 145.92 0 0 1 115.2-128A128 128 0 0 1 359.68 384c0-88.96 84.48-128 165.12-128s165.76 39.68 165.76 128a128 128 0 0 1-107.52 119.68 145.92 145.92 0 0 1 115.2 128c0 85.76-78.08 136.32-172.8 136.32z" fill="#f4ea2a" p-id="15956"></path><path d="M525.44 531.2c-29.44 3.84-112 31.36-112 96 0 53.76 52.48 86.4 112 86.4S640 680.32 640 626.56c0-64.64-85.12-92.16-114.56-95.36zM630.4 392.96c0-51.2-47.36-81.92-104.96-81.92s-104.32 30.72-104.32 81.92 74.88 80 104.32 85.12c29.44-5.12 104.96-24.96 104.96-85.12z" fill="#f4ea2a" p-id="15957"></path></svg>