<?xml version="1.0" standalone="no"?><!DOCTYPE svg PUBLIC "-//W3C//DTD SVG 1.1//EN" "http://www.w3.org/Graphics/SVG/1.1/DTD/svg11.dtd"><svg t="1565078784770" class="icon" viewBox="0 0 1024 1024" version="1.1" xmlns="http://www.w3.org/2000/svg" p-id="15648" xmlns:xlink="http://www.w3.org/1999/xlink" width="200" height="200"><defs><style type="text/css"></style></defs><path d="M512 0a512 512 0 1 0 512 512 512 512 0 0 0-512-512z m23.68 768C402.56 768 352 647.04 352 512s59.52-256 192-256a159.36 159.36 0 0 1 128 59.52l-30.08 46.08a119.68 119.68 0 0 0-101.12-50.56c-92.16 0-133.76 97.28-133.76 192v19.2A168.96 168.96 0 0 1 545.92 448 146.56 146.56 0 0 1 704 606.08 159.36 159.36 0 0 1 535.68 768z" fill="#f4ea2a" p-id="15649"></path><path d="M532.48 501.12A144 144 0 0 0 414.08 576c5.12 64 36.48 138.24 119.04 138.24A104.96 104.96 0 0 0 640 608a99.84 99.84 0 0 0-107.52-106.88z" fill="#f4ea2a" p-id="15650"></path></svg>