<svg xmlns="http://www.w3.org/2000/svg" viewBox="0 0 41.5 41.5"><defs><style>.cls-1,.cls-4{fill:none;}.cls-1{stroke:#ccc;}.cls-1,.cls-2,.cls-3,.cls-4{stroke-miterlimit:10;}.cls-1,.cls-2{stroke-width:1.5px;}.cls-2,.cls-3{fill:#fff;}.cls-2,.cls-3,.cls-4{stroke:#aaa;}.cls-4{stroke-linecap:round;}.cls-5{fill:#aaa;}</style></defs><title>资源 20</title><g id="图层_2" data-name="图层 2"><g id="图层_1-2" data-name="图层 1"><rect class="cls-1" x="0.75" y="0.75" width="40" height="40" rx="1" ry="1"/><path class="cls-2" d="M6.76,5.88h9a0,0,0,0,1,0,0v10a0,0,0,0,1,0,0h-10a0,0,0,0,1,0,0v-9A1,1,0,0,1,6.76,5.88Z"/><rect class="cls-2" x="15.75" y="5.88" width="10" height="10"/><path class="cls-2" d="M25.75,5.88h9a1,1,0,0,1,1,1v9a0,0,0,0,1,0,0h-10a0,0,0,0,1,0,0v-10A0,0,0,0,1,25.75,5.88Z"/><rect class="cls-2" x="5.75" y="15.63" width="10" height="10"/><rect class="cls-2" x="15.75" y="15.63" width="10" height="10"/><rect class="cls-2" x="25.75" y="15.63" width="10" height="10"/><path class="cls-2" d="M5.75,25.63h10a0,0,0,0,1,0,0v10a0,0,0,0,1,0,0h-9a1,1,0,0,1-1-1v-9A0,0,0,0,1,5.75,25.63Z"/><rect class="cls-2" x="15.75" y="25.63" width="10" height="10"/><path class="cls-2" d="M25.75,25.63h10a0,0,0,0,1,0,0v8.94a1.06,1.06,0,0,1-1.06,1.06H25.75a0,0,0,0,1,0,0v-10A0,0,0,0,1,25.75,25.63Z"/><rect class="cls-3" x="16.75" y="12.13" width="3" height="3"/><path class="cls-4" d="M18.5,13.62S12.2,21.18,10.76,29"/><polygon class="cls-5" points="9.38 28.35 10.5 31.13 12.34 28.77 9.38 28.35"/><path class="cls-4" d="M18.5,13.62A59.79,59.79,0,0,1,20.57,29"/><polygon class="cls-5" points="19.05 28.51 20.5 31.13 22.04 28.56 19.05 28.51"/></g></g></svg>