<svg xmlns="http://www.w3.org/2000/svg" viewBox="0 0 31.5 31.5"><defs><style>.cls-1{fill:#aaa;}</style></defs><title>资源 39odmap</title><g id="图层_2" data-name="图层 2"><g id="图层_1-2" data-name="图层 1"><path  d="M15.51,21.5H10V11.28l.13-.19c.19-.28.37-.54.54-.77l.22-.32h2.95l.14.58A64.2,64.2,0,0,1,15.46,20.7Zm-4-1.5h2.41a63.06,63.06,0,0,0-1.26-8.5h-1l-.17.24Z"/><path  d="M21.5,21.5H14l0-.7a60.93,60.93,0,0,0-1.45-9.88L12.3,10h9.2ZM15.41,20H20V11.5H14.18A63.34,63.34,0,0,1,15.41,20Z"/><path  d="M10,13.93V10h2.73l-.84,1.18-.52.75Z"/><path  d="M14.19,11.5H9.82l.85-1.18c.87-1.23,1.48-2,1.5-2l.9-1.09.4,1.36s.22.74.51,2Z"/><path  d="M11.5,21.5H4.89l.35-1a41.38,41.38,0,0,1,4.89-9.41l1.37-2ZM7,20h3V14.06A38.22,38.22,0,0,0,7,20Z"/><path  d="M21.5,11.5H14V8.05H10V0H21.5Zm-6-1.5H20V1.5H11.5V6.55h4Z"/><path  d="M15.5,11.5H12.65l-.14-.58c0-.16-.07-.31-.1-.45l-.52.71-.22.32H10V6.55h5.5ZM13.84,10H14V8.05h-.69l.16.54S13.62,9.11,13.84,10ZM11.5,8.05V9.18c.4-.53.66-.84.67-.86l.23-.27Z"/><path  d="M31.5,21.5H20V10H31.5ZM21.5,20H30V11.5H21.5Z"/><path  d="M29.75,31.5H20V20H31.5v9.75A1.76,1.76,0,0,1,29.75,31.5ZM21.5,30h8.25a.25.25,0,0,0,.25-.25V21.5H21.5Z"/><path  d="M11.5,11.5H0V1.75A1.76,1.76,0,0,1,1.75,0H11.5ZM1.5,10H10V1.5H1.75a.25.25,0,0,0-.25.25Z"/><path  d="M31.5,11.5H20V0h9.75A1.76,1.76,0,0,1,31.5,1.75ZM21.5,10H30V1.75a.25.25,0,0,0-.25-.25H21.5Z"/><path  d="M21.5,31.5H10V20H21.5ZM11.5,30H20V21.5H15.5q.06,1.24.06,2.43c0,.82,0,1.62-.06,2.41L14,26.26q.06-1.14.06-2.34c0-.78,0-1.59-.06-2.42H11.5Z"/><path  d="M6.48,21.5H0V10H11.5v1.74l-.13.19A40.49,40.49,0,0,0,6.65,21ZM1.5,20H5.42a41.64,41.64,0,0,1,4.43-8.5H1.5Z"/><path  d="M11.5,31.5H1.75A1.76,1.76,0,0,1,0,29.75V20H11.5Zm-10-10v8.25a.25.25,0,0,0,.25.25H10V21.5H6.48a20,20,0,0,0-1,4.85L4,26.26a20.38,20.38,0,0,1,.91-4.76Z"/></g></g></svg>