<svg xmlns="http://www.w3.org/2000/svg" viewBox="0 0 75.38 30.5"><defs><style>.cls-1{fill:#aaa;}</style></defs><title>资源 40one_dimension</title><g id="图层_2" data-name="图层 2"><g id="图层_1-2" data-name="图层 1"><rect  y="14.54" width="75.38" height="1"/><rect  x="12.6" width="1" height="3"/><path  d="M13.6,22.2h-1V17.4h1Zm0-9.6h-1V7.8h1Z"/><rect  x="12.6" y="27" width="1" height="3"/><rect  x="29.23" width="1" height="3"/><path  d="M30.23,22.2h-1V17.4h1Zm0-9.6h-1V7.8h1Z"/><rect  x="29.23" y="27" width="1" height="3"/><rect  x="45.87" width="1" height="3"/><path  d="M46.87,22.2h-1V17.4h1Zm0-9.6h-1V7.8h1Z"/><rect  x="45.87" y="27" width="1" height="3"/><rect  x="62.5" y="0.5" width="1" height="3"/><path  d="M63.5,22.7h-1V17.9h1Zm0-9.6h-1V8.3h1Z"/><rect  x="62.5" y="27.5" width="1" height="3"/></g></g></svg>