<svg xmlns="http://www.w3.org/2000/svg" viewBox="0 0 29.5 29.5"><defs><style>.cls-1{fill:#aaa;}</style></defs><title>资源 51packing</title><g id="图层_2" data-name="图层 2"><g id="图层_1-2" data-name="图层 1"><path  d="M14.75,29.5A14.75,14.75,0,1,1,29.5,14.75,14.77,14.77,0,0,1,14.75,29.5Zm0-28A13.25,13.25,0,1,0,28,14.75,13.26,13.26,0,0,0,14.75,1.5Z"/><path  d="M19.23,27.82a8.59,8.59,0,1,1,8.59-8.59A8.6,8.6,0,0,1,19.23,27.82Zm0-15.68a7.09,7.09,0,1,0,7.09,7.09A7.1,7.1,0,0,0,19.23,12.14Z"/><path  d="M10.27,14.38A5.23,5.23,0,1,1,15.5,9.15,5.24,5.24,0,0,1,10.27,14.38Zm0-9A3.73,3.73,0,1,0,14,9.15,3.73,3.73,0,0,0,10.27,5.42Z"/><path  d="M19.79,25.58a4.67,4.67,0,1,1,4.67-4.67A4.68,4.68,0,0,1,19.79,25.58Zm0-7.84A3.17,3.17,0,1,0,23,20.91,3.17,3.17,0,0,0,19.79,17.74Z"/><path  d="M21.47,12.14A4.11,4.11,0,1,1,25.58,8,4.11,4.11,0,0,1,21.47,12.14Zm0-6.72A2.61,2.61,0,1,0,24.08,8,2.61,2.61,0,0,0,21.47,5.42Z"/><path  d="M8,24.46a4.11,4.11,0,1,1,4.11-4.11A4.11,4.11,0,0,1,8,24.46Zm0-6.72a2.61,2.61,0,1,0,2.61,2.61A2.61,2.61,0,0,0,8,17.74Z"/><path  d="M16.93,18.26a3,3,0,1,1,3-3A3,3,0,0,1,16.93,18.26Zm0-4.52a1.51,1.51,0,1,0,1.51,1.51A1.52,1.52,0,0,0,16.93,13.74Z"/></g></g></svg>