<svg xmlns="http://www.w3.org/2000/svg" viewBox="0 0 27.76 27.76"><defs><style>.cls-1{fill:#aaa;}</style></defs><title>资源 49pie</title><g id="图层_2" data-name="图层 2"><g id="图层_1-2" data-name="图层 1"><path  d="M14,27.76h-.37a14,14,0,0,1-9.57-4.14,13.78,13.78,0,0,1-4-9.53A14,14,0,0,1,13.7,0a1.08,1.08,0,0,1,.87.4,1.07,1.07,0,0,1,.22.94c-.88,3.84-1.28,5.68-2.56,12.4,1.38,2.59,2.83,5.2,4.12,7.5,1,1.74,1.81,3.24,2.4,4.36a1.09,1.09,0,0,1-.45,1.47.7.7,0,0,1-.2.08A13.92,13.92,0,0,1,14,27.76Zm-1.12-26A12.21,12.21,0,0,0,1.77,14.06,12.28,12.28,0,0,0,13.67,26a12.57,12.57,0,0,0,3.12-.31c-.54-1-1.22-2.22-2-3.6C13.48,19.72,12,17,10.56,14.35a1.15,1.15,0,0,1-.11-.71C11.62,7.48,12.06,5.38,12.87,1.8Zm-.74,11.74ZM20.7,25.93a1.09,1.09,0,0,1-1-.57c-.79-1.43-2.92-5.23-5.54-9.69a.93.93,0,0,1,.11-1.1,1,1,0,0,1,1.08-.23L19.11,16c2.57,1.14,5,2.21,6.75,2.94a1.09,1.09,0,0,1,.52,1.57,16.26,16.26,0,0,1-5.14,5.29,1,1,0,0,1-.54.15ZM17,17c1.33,2.29,2.64,4.6,3.93,6.91a14.62,14.62,0,0,0,3.5-3.66c-1.68-.71-3.81-1.65-6.05-2.64L17,17Zm-2.34-1Z"/><path  d="M26.34,17.79a1,1,0,0,1-.38-.07c-3-1.06-9.22-3.54-12-4.69a1.1,1.1,0,0,1-.66-1.2c.5-2.83,1.2-5.67,1.77-8,.28-1.16.53-2.16.71-3A1.1,1.1,0,0,1,17.12.06a13.92,13.92,0,0,1,10.64,13.6v.14A9.59,9.59,0,0,1,27.39,17a1.16,1.16,0,0,1-.55.66A1.11,1.11,0,0,1,26.34,17.79ZM15.15,11.6c2.72,1.13,7.78,3.13,10.73,4.21a9.88,9.88,0,0,0,.12-2v-.14A12.14,12.14,0,0,0,17.36,2q-.24,1-.57,2.34c-.52,2.11-1.16,4.71-1.64,7.3Z"/></g></g></svg>