<svg xmlns="http://www.w3.org/2000/svg" viewBox="0 0 41.5 41.5"><defs><style>.cls-1{fill:none;stroke:#ccc;stroke-miterlimit:10;stroke-width:1.5px;}.cls-2{fill:#aaa;}</style></defs><title>资源 15</title><g id="图层_2" data-name="图层 2"><g id="图层_1-2" data-name="图层 1"><rect class="cls-1" x="0.75" y="0.75" width="40" height="40" rx="1" ry="1"/><path class="cls-2" d="M20.86,34.63h-.37a14,14,0,0,1-9.57-4.14,13.78,13.78,0,0,1-4-9.54A14,14,0,0,1,20.57,6.87a1.09,1.09,0,0,1,.87.4,1.07,1.07,0,0,1,.22.94c-.88,3.84-1.28,5.68-2.56,12.4,1.38,2.59,2.83,5.2,4.12,7.5,1,1.74,1.81,3.24,2.4,4.36a1.09,1.09,0,0,1-.45,1.47A.84.84,0,0,1,25,34,14,14,0,0,1,20.86,34.63Zm-1.12-26A12.21,12.21,0,0,0,8.64,20.93,12.28,12.28,0,0,0,20.53,32.87a12.6,12.6,0,0,0,3.13-.31c-.54-1-1.22-2.22-2-3.6-1.32-2.37-2.83-5.06-4.24-7.74a1.09,1.09,0,0,1-.11-.71C18.49,14.35,18.93,12.25,19.74,8.67ZM19,20.41ZM27.57,32.8a1.09,1.09,0,0,1-1-.57c-.79-1.43-2.92-5.23-5.54-9.69a.93.93,0,0,1,1.18-1.33L26,22.85c2.57,1.14,5,2.21,6.75,2.94a1.06,1.06,0,0,1,.62.67,1.09,1.09,0,0,1-.1.9,16.26,16.26,0,0,1-5.14,5.29,1,1,0,0,1-.54.15Zm-3.69-8.95c1.33,2.29,2.64,4.6,3.93,6.91a14.8,14.8,0,0,0,3.5-3.66c-1.68-.71-3.81-1.66-6-2.64l-1.38-.61Zm-2.34-1Z"/><path class="cls-2" d="M33.21,24.66a1.22,1.22,0,0,1-.38-.07c-3-1.06-9.22-3.54-12-4.69a1.09,1.09,0,0,1-.66-1.2c.5-2.83,1.2-5.67,1.77-8,.28-1.16.53-2.16.71-3a1.12,1.12,0,0,1,.48-.7A1.08,1.08,0,0,1,24,6.93,13.92,13.92,0,0,1,34.63,20.52v.15a9.59,9.59,0,0,1-.37,3.21,1.16,1.16,0,0,1-.55.66A1.11,1.11,0,0,1,33.21,24.66ZM22,18.47c2.71,1.13,7.78,3.13,10.73,4.21a9.88,9.88,0,0,0,.12-2v-.15A12.14,12.14,0,0,0,24.23,8.83q-.24,1-.57,2.34c-.52,2.11-1.16,4.71-1.64,7.3Z"/></g></g></svg>