<svg xmlns="http://www.w3.org/2000/svg" viewBox="0 0 32.95 32.95"><defs><style>.cls-1{fill:#aaa;}</style></defs><title>资源 37polar_heatmap</title><g id="图层_2" data-name="图层 2"><g id="图层_1-2" data-name="图层 1"><path  d="M19.43,16a3,3,0,0,0-.52-1.23L17.68,16Z"/><path  d="M17,13.53v1.74L18.21,14A2.85,2.85,0,0,0,17,13.53Z"/><path  d="M17.51,19.29a2.93,2.93,0,0,0,.7-.37L17,17.68v1.75A2.6,2.6,0,0,0,17.51,19.29Z"/><path  d="M19.43,17H17.68L18.9,18.2A3.07,3.07,0,0,0,19.43,17Z"/><path  d="M13.52,17a2.94,2.94,0,0,0,.53,1.23L15.27,17Z"/><path  d="M15.52,19.32a2.37,2.37,0,0,0,.46.11V17.68l-1.24,1.23A3.23,3.23,0,0,0,15.52,19.32Z"/><path  d="M14.75,14,16,15.27V13.53A2.8,2.8,0,0,0,14.75,14Z"/><path  d="M13.52,16h1.75L14,14.74A3,3,0,0,0,13.52,16Z"/><path  d="M17,20.92v3a7.43,7.43,0,0,0,4.42-1.84L19.26,20A4.39,4.39,0,0,1,17,20.92Z"/><path  d="M24,17h-3a4.49,4.49,0,0,1-1,2.29l2.14,2.14A7.43,7.43,0,0,0,24,17Z"/><path  d="M20.93,16h3a7.43,7.43,0,0,0-1.84-4.42L20,13.69A4.49,4.49,0,0,1,20.93,16Z"/><path  d="M17,9v3a4.39,4.39,0,0,1,2.28,1l2.14-2.14A7.43,7.43,0,0,0,17,9Z"/><path  d="M13,13.69l-2.14-2.14A7.43,7.43,0,0,0,9,16h3A4.49,4.49,0,0,1,13,13.69Z"/><path  d="M16,12V9a7.43,7.43,0,0,0-4.43,1.84L13.69,13A4.39,4.39,0,0,1,16,12Z"/><path  d="M16,24v-3a4.39,4.39,0,0,1-2.29-1l-2.14,2.14A7.43,7.43,0,0,0,16,24Z"/><path  d="M12,17H9a7.43,7.43,0,0,0,1.84,4.43L13,19.26A4.49,4.49,0,0,1,12,17Z"/><path  d="M25.45,16h3a11.92,11.92,0,0,0-3.17-7.6l-2.11,2.12A9,9,0,0,1,25.45,16Z"/><path  d="M17,4.5v3a9,9,0,0,1,5.48,2.28l2.12-2.11A11.92,11.92,0,0,0,17,4.5Z"/><path  d="M28.45,17h-3a9,9,0,0,1-2.28,5.49l2.11,2.12A11.94,11.94,0,0,0,28.45,17Z"/><path  d="M17,28.45a11.92,11.92,0,0,0,7.6-3.17l-2.12-2.11A9,9,0,0,1,17,25.45Z"/><path  d="M4.5,16h3a9,9,0,0,1,2.28-5.48L7.67,8.37A11.92,11.92,0,0,0,4.5,16Z"/><path  d="M16,4.5A11.92,11.92,0,0,0,8.37,7.67l2.12,2.11A9,9,0,0,1,16,7.5Z"/><path  d="M16,28.45v-3a9,9,0,0,1-5.49-2.28L8.37,25.28A11.92,11.92,0,0,0,16,28.45Z"/><path  d="M7.5,17h-3a11.94,11.94,0,0,0,3.17,7.61l2.11-2.12A9,9,0,0,1,7.5,17Z"/><path  d="M17,30v3a16.45,16.45,0,0,0,10.78-4.49l-2.12-2.12A13.43,13.43,0,0,1,17,30Z"/><path  d="M30,17a13.43,13.43,0,0,1-3.61,8.67l2.12,2.12A16.47,16.47,0,0,0,33,17Z"/><path  d="M17,0V3a13.43,13.43,0,0,1,8.66,3.61l2.12-2.12A16.45,16.45,0,0,0,17,0Z"/><path  d="M30,16h3A16.45,16.45,0,0,0,28.46,5.19L26.34,7.31A13.43,13.43,0,0,1,30,16Z"/><path  d="M16,3V0A16.45,16.45,0,0,0,5.19,4.49L7.31,6.61A13.43,13.43,0,0,1,16,3Z"/><path  d="M6.61,7.31,4.49,5.19A16.45,16.45,0,0,0,0,16H3A13.43,13.43,0,0,1,6.61,7.31Z"/><path  d="M3,17H0A16.47,16.47,0,0,0,4.49,27.76l2.12-2.12A13.43,13.43,0,0,1,3,17Z"/><path  d="M16,33V30a13.43,13.43,0,0,1-8.67-3.61L5.19,28.46A16.45,16.45,0,0,0,16,33Z"/></g></g></svg>