<svg xmlns="http://www.w3.org/2000/svg" viewBox="0 0 30.11 34.41"><defs><style>.cls-1{fill:#aaa;}</style></defs><title>资源 47radar</title><g id="图层_2" data-name="图层 2"><g id="图层_1-2" data-name="图层 1"><path  d="M15.05,34.41a1.09,1.09,0,0,1-.58-.15l-13.9-8a1.17,1.17,0,0,1-.57-1V9.18a1.17,1.17,0,0,1,.57-1l13.9-8a1.18,1.18,0,0,1,1.15,0l13.91,8a1.16,1.16,0,0,1,.58,1V25.24a1.16,1.16,0,0,1-.58,1l-13.91,8A1,1,0,0,1,15.05,34.41ZM2.29,24.57,15.05,32l12.76-7.38V9.85L15.05,2.47,2.29,9.85Z"/><path  d="M15.05,29.25a1.18,1.18,0,0,1-.55-.14L4,23.38a1.15,1.15,0,0,1-.57-1.26L5.76,11.79a1.23,1.23,0,0,1,.46-.68L14.4,5.37a1.14,1.14,0,0,1,1.32,0l8.17,5.74a1.13,1.13,0,0,1,.45.68l2.3,10.33a1.16,1.16,0,0,1-.56,1.26L15.6,29.11A1.15,1.15,0,0,1,15.05,29.25ZM5.88,21.77l9.17,5,9.18-5-2-9-7.19-5-7.14,5Z"/></g></g></svg>