<svg xmlns="http://www.w3.org/2000/svg" viewBox="0 0 41.5 41.5"><defs><style>.cls-1{fill:#aaa;}.cls-2{fill:none;stroke:#ccc;stroke-miterlimit:10;stroke-width:1.5px;}</style></defs><title>资源 13</title><g id="图层_2" data-name="图层 2"><g id="图层_1-2" data-name="图层 1"><path class="cls-1" d="M20.74,38a1.16,1.16,0,0,1-.57-.15l-13.9-8a1.13,1.13,0,0,1-.57-1V12.72a1.1,1.1,0,0,1,.57-1l13.9-8a1.13,1.13,0,0,1,1.15,0l13.91,8a1.1,1.1,0,0,1,.57,1V28.78a1.13,1.13,0,0,1-.57,1l-13.91,8A1.17,1.17,0,0,1,20.74,38ZM8,28.12l12.75,7.37,12.77-7.37V13.39L20.74,6,8,13.39Z"/><path class="cls-1" d="M20.75,32.79a1.06,1.06,0,0,1-.55-.13L9.74,26.92a1.15,1.15,0,0,1-.58-1.26l2.3-10.32a1.22,1.22,0,0,1,.46-.69L20.1,8.91a1.16,1.16,0,0,1,1.31,0l8.17,5.74a1.14,1.14,0,0,1,.46.69l2.29,10.32a1.13,1.13,0,0,1-.56,1.26L21.3,32.66A1.06,1.06,0,0,1,20.75,32.79Zm-9.18-7.47,9.18,5,9.18-5-2-9-7.19-5-7.15,5Z"/><rect class="cls-2" x="0.75" y="0.75" width="40" height="40" rx="1" ry="1"/></g></g></svg>