<svg xmlns="http://www.w3.org/2000/svg" viewBox="0 0 41.5 41.5"><defs><style>.cls-1{fill:#aaa;}.cls-2{fill:none;stroke:#ccc;stroke-miterlimit:10;stroke-width:1.5px;}</style></defs><title>资源 14</title><g id="图层_2" data-name="图层 2"><g id="图层_1-2" data-name="图层 1"><path class="cls-1" d="M35.38,7.11H34.33a.17.17,0,0,0-.17.16V9.32a30.29,30.29,0,0,0-16.33,3.91,34.13,34.13,0,0,1-3.74,2,16,16,0,0,0-6.75-3.7V7.27a.16.16,0,0,0-.16-.16H6.12A.16.16,0,0,0,6,7.27v27a.16.16,0,0,0,.17.16h1a.17.17,0,0,0,.17-.16V32.1A37,37,0,0,0,21.14,28a43.59,43.59,0,0,1,4-1.85,28.77,28.77,0,0,0,9,2.64v5.43a.16.16,0,0,0,.16.16h1.06a.16.16,0,0,0,.17-.16v-27A.16.16,0,0,0,35.38,7.11Zm-28,6.45a13.84,13.84,0,0,1,4.6,2.51,29,29,0,0,1-4.6,1.28Zm10.8,9.32a30.87,30.87,0,0,1-10.8,3.29v-6.8a31.93,31.93,0,0,0,6.38-1.84c.66.59,1.34,1.23,2.06,2a28.13,28.13,0,0,0,3.19,3ZM21,21.48a26.41,26.41,0,0,1-3.67-3.25c-.54-.57-1.06-1.1-1.57-1.57,1.09-.52,2.15-1.08,3.18-1.7a28.72,28.72,0,0,1,15.23-3.64V18.2A33.92,33.92,0,0,0,21,21.48Zm6.9,3.76a26.71,26.71,0,0,1,6.27-1.12v2.72A25.13,25.13,0,0,1,27.89,25.24Z"/><rect class="cls-2" x="0.75" y="0.75" width="40" height="40" rx="1" ry="1"/></g></g></svg>