<svg xmlns="http://www.w3.org/2000/svg" viewBox="0 0 29.6 27.29"><defs><style>.cls-1{fill:#aaa;}</style></defs><title>资源 48sankey</title><g id="图层_2" data-name="图层 2"><g id="图层_1-2" data-name="图层 1"><path  d="M29.43,0H28.38a.17.17,0,0,0-.17.17v2A30.38,30.38,0,0,0,11.88,6.12a34.13,34.13,0,0,1-3.74,2,16.15,16.15,0,0,0-6.75-3.7V.17A.16.16,0,0,0,1.23,0H.17A.16.16,0,0,0,0,.17v27a.17.17,0,0,0,.17.17H1.22a.18.18,0,0,0,.17-.17V25a37.36,37.36,0,0,0,13.8-4.09,38.82,38.82,0,0,1,4-1.85,29.31,29.31,0,0,0,9,2.64v5.42a.17.17,0,0,0,.16.17h1.06a.17.17,0,0,0,.17-.17V.17A.16.16,0,0,0,29.43,0Zm-28,6.46A13.64,13.64,0,0,1,6,9a29,29,0,0,1-4.6,1.28Zm10.8,9.31a30.66,30.66,0,0,1-10.8,3.29v-6.8a31.28,31.28,0,0,0,6.38-1.84c.66.59,1.34,1.24,2.06,2a28,28,0,0,0,3.19,3ZM15,14.37a26.34,26.34,0,0,1-3.67-3.24c-.54-.58-1.06-1.11-1.57-1.58C10.89,9,12,8.47,13,7.86A28.63,28.63,0,0,1,28.21,4.22V11.1A33.91,33.91,0,0,0,15,14.37Zm6.9,3.76A26.71,26.71,0,0,1,28.21,17v2.73A25.58,25.58,0,0,1,21.94,18.13Z"/></g></g></svg>