<svg xmlns="http://www.w3.org/2000/svg" viewBox="0 0 30 30"><defs><style>.cls-1{fill:#aaa;}</style></defs><title>资源 43scatterplot</title><g id="图层_2" data-name="图层 2"><g id="图层_1-2" data-name="图层 1"><path  d="M23.44,24.37a2.81,2.81,0,1,1,2.81-2.81A2.89,2.89,0,0,1,23.44,24.37ZM12.19,15a2.89,2.89,0,0,1-2.82-2.81,2.9,2.9,0,0,1,2.82-2.82A2.89,2.89,0,0,1,15,12.19,2.88,2.88,0,0,1,12.19,15Zm8.43-7.5a1.77,1.77,0,0,1-1.87-1.87,1.77,1.77,0,0,1,1.87-1.88A1.77,1.77,0,0,1,22.5,5.63,1.77,1.77,0,0,1,20.62,7.5Zm7.5,5.63a1.77,1.77,0,0,1-1.87-1.88,1.88,1.88,0,0,1,3.75,0A1.77,1.77,0,0,1,28.12,13.13ZM5.62,9.37A1.76,1.76,0,0,1,3.75,7.5,1.77,1.77,0,0,1,5.62,5.63,1.77,1.77,0,0,1,7.5,7.5,1.77,1.77,0,0,1,5.62,9.37ZM15,22.5a1.77,1.77,0,0,1-1.88-1.88A1.77,1.77,0,0,1,15,18.75a1.88,1.88,0,1,1,0,3.75ZM20.62,15a1.77,1.77,0,0,1-1.87-1.88,1.77,1.77,0,0,1,1.87-1.87,1.77,1.77,0,0,1,1.88,1.87A1.77,1.77,0,0,1,20.62,15ZM7.5,24.37a1.88,1.88,0,0,1,0-3.75A1.77,1.77,0,0,1,9.37,22.5,1.76,1.76,0,0,1,7.5,24.37ZM0,29.06V0H1.88V28.12H30V30H0Z"/></g></g></svg>