<svg xmlns="http://www.w3.org/2000/svg" viewBox="0 0 41.5 41.5"><defs><style>.cls-1{fill:none;stroke:#ccc;stroke-miterlimit:10;stroke-width:1.5px;}.cls-2{fill:#aaa;}</style></defs><title>资源 16</title><g id="图层_2" data-name="图层 2"><g id="图层_1-2" data-name="图层 1"><rect class="cls-1" x="0.75" y="0.75" width="40" height="40" rx="1" ry="1"/><path class="cls-2" d="M17.06,13.43V7.56a.81.81,0,0,1,.81-.81H33.94a.81.81,0,0,1,.81.81v5.87a.81.81,0,0,1-.81.81H17.87A.81.81,0,0,1,17.06,13.43ZM6.75,21.63V7.56a.81.81,0,0,1,.81-.81h5.87a.81.81,0,0,1,.81.81V21.63a.82.82,0,0,1-.81.82H7.56A.82.82,0,0,1,6.75,21.63Zm20.51,6.15v-10a.82.82,0,0,1,.81-.82h5.87a.82.82,0,0,1,.81.82v10a.82.82,0,0,1-.81.82H28.07A.82.82,0,0,1,27.26,27.78ZM17,33.94V18a.82.82,0,0,1,.82-.81h5.86a.82.82,0,0,1,.82.81v16a.82.82,0,0,1-.82.81H17.82A.82.82,0,0,1,17,33.94Zm10.26,0V31.08a.81.81,0,0,1,.81-.81h5.87a.81.81,0,0,1,.81.81v2.86a.81.81,0,0,1-.81.81H28.07A.81.81,0,0,1,27.26,33.94Zm-20.51,0V25.06a.81.81,0,0,1,.81-.81h5.87a.81.81,0,0,1,.81.81v8.88a.81.81,0,0,1-.81.81H7.56A.81.81,0,0,1,6.75,33.94Z"/></g></g></svg>