<svg xmlns="http://www.w3.org/2000/svg" viewBox="0 0 75.38 67"><defs><style>.cls-1{fill:#aaa;}</style></defs><title>资源 42two_dimension</title><g id="图层_2" data-name="图层 2"><g id="图层_1-2" data-name="图层 1"><path  d="M69.59,56.61H4.11V10.39H69.59Zm-64.48-1H68.59V11.39H5.11Z"/><rect  y="25.04" width="3" height="1"/><path  d="M66.07,26H59.76V25h6.31ZM53.45,26h-6.3V25h6.3ZM40.84,26H34.53V25h6.31ZM28.23,26H21.92V25h6.31ZM15.61,26H9.31V25h6.3Z"/><rect  x="72.38" y="25.04" width="3" height="1"/><rect  y="40.96" width="3" height="1"/><path  d="M66.07,42H59.76V41h6.31ZM53.45,42h-6.3V41h6.3ZM40.84,42H34.53V41h6.31ZM28.23,42H21.92V41h6.31ZM15.61,42H9.31V41h6.3Z"/><rect  x="72.38" y="40.96" width="3" height="1"/><rect  x="19.6" width="1" height="3"/><path  d="M20.6,58.46h-1V52.91h1Zm0-11.1h-1V41.82h1Zm0-11.09h-1V30.73h1Zm0-11.09h-1V19.64h1Zm0-11.09h-1V8.55h1Z"/><rect  x="19.6" y="64" width="1" height="3"/><rect  x="36.35" width="1" height="3"/><path  d="M37.35,58.46h-1V52.91h1Zm0-11.1h-1V41.82h1Zm0-11.09h-1V30.73h1Zm0-11.09h-1V19.64h1Zm0-11.09h-1V8.55h1Z"/><rect  x="36.35" y="64" width="1" height="3"/><rect  x="53.1" width="1" height="3"/><path  d="M54.1,58.46h-1V52.91h1Zm0-11.1h-1V41.82h1Zm0-11.09h-1V30.73h1Zm0-11.09h-1V19.64h1Zm0-11.09h-1V8.55h1Z"/><rect  x="53.1" y="64" width="1" height="3"/></g></g></svg>